<svg xmlns="http://www.w3.org/2000/svg" width="500" height="500" viewBox="0 0 500 500">
  <polygon points="181.091,490.315 94.371,445.652 101.372,447.659" fill="#ff0000" stroke="#ff0000" stroke-width="0.000" />
  <polygon points="181.091,490.315 101.372,447.659 121.307,453.376" fill="#ffffff" stroke="#ffffff" stroke-width="0.000" />
  <polygon points="181.091,490.315 121.307,453.376 151.143,461.931" fill="#ff0000" stroke="#ff0000" stroke-width="0.000" />
  <polygon points="181.091,490.315 151.143,461.931 181.091,490.315" fill="#ff0000" stroke="#ff0000" stroke-width="0.000" />
  <polygon points="181.091,490.315 151.143,461.931 186.336,472.023" fill="#ffffff" stroke="#ffffff" stroke-width="0.000" />
  <polygon points="181.091,490.315 186.336,472.023 221.529,482.114" fill="#ff0000" stroke="#ff0000" stroke-width="0.000" />
  <polygon points="181.091,490.315 221.529,482.114 251.365,490.669" fill="#ffffff" stroke="#ffffff" stroke-width="0.000" />
  <polygon points="181.091,490.315 251.365,490.669 271.300,496.386" fill="#ff0000" stroke="#ff0000" stroke-width="0.000" />
  <polygon points="181.091,490.315 271.300,496.386 278.301,498.393" fill="#ffffff" stroke="#ffffff" stroke-width="0.000" />
  <polygon points="94.371,445.652 31.345,371.202 44.280,374.911" fill="#ffffff" stroke="#ffffff" stroke-width="0.000" />
  <polygon points="94.371,445.652 44.280,374.911 101.372,447.659" fill="#ffffff" stroke="#ffffff" stroke-width="0.000" />
  <polygon points="101.372,447.659 44.280,374.911 81.116,385.474" fill="#ff0000" stroke="#ff0000" stroke-width="0.000" />
  <polygon points="101.372,447.659 81.116,385.474 121.307,453.376" fill="#ff0000" stroke="#ff0000" stroke-width="0.000" />
  <polygon points="121.307,453.376 81.116,385.474 136.245,401.282" fill="#ffffff" stroke="#ffffff" stroke-width="0.000" />
  <polygon points="121.307,453.376 136.245,401.282 151.143,461.931" fill="#ffffff" stroke="#ffffff" stroke-width="0.000" />
  <polygon points="151.143,461.931 136.245,401.282 201.274,419.929" fill="#ff0000" stroke="#ff0000" stroke-width="0.000" />
  <polygon points="151.143,461.931 201.274,419.929 186.336,472.023" fill="#ff0000" stroke="#ff0000" stroke-width="0.000" />
  <polygon points="186.336,472.023 201.274,419.929 266.303,438.575" fill="#ffffff" stroke="#ffffff" stroke-width="0.000" />
  <polygon points="186.336,472.023 266.303,438.575 221.529,482.114" fill="#ffffff" stroke="#ffffff" stroke-width="0.000" />
  <polygon points="221.529,482.114 266.303,438.575 321.431,454.383" fill="#ff0000" stroke="#ff0000" stroke-width="0.000" />
  <polygon points="221.529,482.114 321.431,454.383 251.365,490.669" fill="#ff0000" stroke="#ff0000" stroke-width="0.000" />
  <polygon points="251.365,490.669 321.431,454.383 358.267,464.946" fill="#ffffff" stroke="#ffffff" stroke-width="0.000" />
  <polygon points="251.365,490.669 358.267,464.946 271.300,496.386" fill="#ffffff" stroke="#ffffff" stroke-width="0.000" />
  <polygon points="271.300,496.386 358.267,464.946 371.202,468.655" fill="#ff0000" stroke="#ff0000" stroke-width="0.000" />
  <polygon points="271.300,496.386 371.202,468.655 278.301,498.393" fill="#ff0000" stroke="#ff0000" stroke-width="0.000" />
  <polygon points="31.345,371.202 1.607,278.301 18.507,283.147" fill="#ff0000" stroke="#ff0000" stroke-width="0.000" />
  <polygon points="31.345,371.202 18.507,283.147 44.280,374.911" fill="#ff0000" stroke="#ff0000" stroke-width="0.000" />
  <polygon points="44.280,374.911 18.507,283.147 66.636,296.948" fill="#ffffff" stroke="#ffffff" stroke-width="0.000" />
  <polygon points="44.280,374.911 66.636,296.948 81.116,385.474" fill="#ffffff" stroke="#ffffff" stroke-width="0.000" />
  <polygon points="81.116,385.474 66.636,296.948 138.665,317.602" fill="#ff0000" stroke="#ff0000" stroke-width="0.000" />
  <polygon points="81.116,385.474 138.665,317.602 136.245,401.282" fill="#ff0000" stroke="#ff0000" stroke-width="0.000" />
  <polygon points="136.245,401.282 138.665,317.602 223.630,341.965" fill="#ffffff" stroke="#ffffff" stroke-width="0.000" />
  <polygon points="136.245,401.282 223.630,341.965 201.274,419.929" fill="#ffffff" stroke="#ffffff" stroke-width="0.000" />
  <polygon points="201.274,419.929 223.630,341.965 308.594,366.328" fill="#ff0000" stroke="#ff0000" stroke-width="0.000" />
  <polygon points="201.274,419.929 308.594,366.328 266.303,438.575" fill="#ff0000" stroke="#ff0000" stroke-width="0.000" />
  <polygon points="266.303,438.575 308.594,366.328 380.623,386.982" fill="#ffffff" stroke="#ffffff" stroke-width="0.000" />
  <polygon points="266.303,438.575 380.623,386.982 321.431,454.383" fill="#ffffff" stroke="#ffffff" stroke-width="0.000" />
  <polygon points="321.431,454.383 380.623,386.982 428.752,400.783" fill="#ff0000" stroke="#ff0000" stroke-width="0.000" />
  <polygon points="321.431,454.383 428.752,400.783 358.267,464.946" fill="#ff0000" stroke="#ff0000" stroke-width="0.000" />
  <polygon points="358.267,464.946 428.752,400.783 445.652,405.629" fill="#ffffff" stroke="#ffffff" stroke-width="0.000" />
  <polygon points="358.267,464.946 445.652,405.629 371.202,468.655" fill="#ffffff" stroke="#ffffff" stroke-width="0.000" />
  <polygon points="1.607,278.301 9.685,181.091 27.977,186.336" fill="#ffffff" stroke="#ffffff" stroke-width="0.000" />
  <polygon points="1.607,278.301 27.977,186.336 18.507,283.147" fill="#ffffff" stroke="#ffffff" stroke-width="0.000" />
  <polygon points="18.507,283.147 27.977,186.336 80.071,201.274" fill="#ff0000" stroke="#ff0000" stroke-width="0.000" />
  <polygon points="18.507,283.147 80.071,201.274 66.636,296.948" fill="#ff0000" stroke="#ff0000" stroke-width="0.000" />
  <polygon points="66.636,296.948 80.071,201.274 158.035,223.630" fill="#ffffff" stroke="#ffffff" stroke-width="0.000" />
  <polygon points="66.636,296.948 158.035,223.630 138.665,317.602" fill="#ffffff" stroke="#ffffff" stroke-width="0.000" />
  <polygon points="138.665,317.602 158.035,223.630 250.000,250.000" fill="#ff0000" stroke="#ff0000" stroke-width="0.000" />
  <polygon points="138.665,317.602 250.000,250.000 223.630,341.965" fill="#ff0000" stroke="#ff0000" stroke-width="0.000" />
  <polygon points="223.630,341.965 250.000,250.000 341.965,276.370" fill="#ffffff" stroke="#ffffff" stroke-width="0.000" />
  <polygon points="223.630,341.965 341.965,276.370 308.594,366.328" fill="#ffffff" stroke="#ffffff" stroke-width="0.000" />
  <polygon points="308.594,366.328 341.965,276.370 419.929,298.726" fill="#ff0000" stroke="#ff0000" stroke-width="0.000" />
  <polygon points="308.594,366.328 419.929,298.726 380.623,386.982" fill="#ff0000" stroke="#ff0000" stroke-width="0.000" />
  <polygon points="380.623,386.982 419.929,298.726 472.023,313.664" fill="#ffffff" stroke="#ffffff" stroke-width="0.000" />
  <polygon points="380.623,386.982 472.023,313.664 428.752,400.783" fill="#ffffff" stroke="#ffffff" stroke-width="0.000" />
  <polygon points="428.752,400.783 472.023,313.664 490.315,318.909" fill="#ff0000" stroke="#ff0000" stroke-width="0.000" />
  <polygon points="428.752,400.783 490.315,318.909 445.652,405.629" fill="#ff0000" stroke="#ff0000" stroke-width="0.000" />
  <polygon points="9.685,181.091 54.348,94.371 71.248,99.217" fill="#ff0000" stroke="#ff0000" stroke-width="0.000" />
  <polygon points="9.685,181.091 71.248,99.217 27.977,186.336" fill="#ff0000" stroke="#ff0000" stroke-width="0.000" />
  <polygon points="27.977,186.336 71.248,99.217 119.377,113.018" fill="#ffffff" stroke="#ffffff" stroke-width="0.000" />
  <polygon points="27.977,186.336 119.377,113.018 80.071,201.274" fill="#ffffff" stroke="#ffffff" stroke-width="0.000" />
  <polygon points="80.071,201.274 119.377,113.018 191.406,133.672" fill="#ff0000" stroke="#ff0000" stroke-width="0.000" />
  <polygon points="80.071,201.274 191.406,133.672 158.035,223.630" fill="#ff0000" stroke="#ff0000" stroke-width="0.000" />
  <polygon points="158.035,223.630 191.406,133.672 276.370,158.035" fill="#ffffff" stroke="#ffffff" stroke-width="0.000" />
  <polygon points="158.035,223.630 276.370,158.035 250.000,250.000" fill="#ffffff" stroke="#ffffff" stroke-width="0.000" />
  <polygon points="250.000,250.000 276.370,158.035 361.335,182.398" fill="#ff0000" stroke="#ff0000" stroke-width="0.000" />
  <polygon points="250.000,250.000 361.335,182.398 341.965,276.370" fill="#ff0000" stroke="#ff0000" stroke-width="0.000" />
  <polygon points="341.965,276.370 361.335,182.398 433.364,203.052" fill="#ffffff" stroke="#ffffff" stroke-width="0.000" />
  <polygon points="341.965,276.370 433.364,203.052 419.929,298.726" fill="#ffffff" stroke="#ffffff" stroke-width="0.000" />
  <polygon points="419.929,298.726 433.364,203.052 481.493,216.853" fill="#ff0000" stroke="#ff0000" stroke-width="0.000" />
  <polygon points="419.929,298.726 481.493,216.853 472.023,313.664" fill="#ff0000" stroke="#ff0000" stroke-width="0.000" />
  <polygon points="472.023,313.664 481.493,216.853 498.393,221.699" fill="#ffffff" stroke="#ffffff" stroke-width="0.000" />
  <polygon points="472.023,313.664 498.393,221.699 490.315,318.909" fill="#ffffff" stroke="#ffffff" stroke-width="0.000" />
  <polygon points="54.348,94.371 128.798,31.345 141.733,35.054" fill="#ffffff" stroke="#ffffff" stroke-width="0.000" />
  <polygon points="54.348,94.371 141.733,35.054 71.248,99.217" fill="#ffffff" stroke="#ffffff" stroke-width="0.000" />
  <polygon points="71.248,99.217 141.733,35.054 178.569,45.617" fill="#ff0000" stroke="#ff0000" stroke-width="0.000" />
  <polygon points="71.248,99.217 178.569,45.617 119.377,113.018" fill="#ff0000" stroke="#ff0000" stroke-width="0.000" />
  <polygon points="119.377,113.018 178.569,45.617 233.697,61.425" fill="#ffffff" stroke="#ffffff" stroke-width="0.000" />
  <polygon points="119.377,113.018 233.697,61.425 191.406,133.672" fill="#ffffff" stroke="#ffffff" stroke-width="0.000" />
  <polygon points="191.406,133.672 233.697,61.425 298.726,80.071" fill="#ff0000" stroke="#ff0000" stroke-width="0.000" />
  <polygon points="191.406,133.672 298.726,80.071 276.370,158.035" fill="#ff0000" stroke="#ff0000" stroke-width="0.000" />
  <polygon points="276.370,158.035 298.726,80.071 363.755,98.718" fill="#ffffff" stroke="#ffffff" stroke-width="0.000" />
  <polygon points="276.370,158.035 363.755,98.718 361.335,182.398" fill="#ffffff" stroke="#ffffff" stroke-width="0.000" />
  <polygon points="361.335,182.398 363.755,98.718 418.884,114.526" fill="#ff0000" stroke="#ff0000" stroke-width="0.000" />
  <polygon points="361.335,182.398 418.884,114.526 433.364,203.052" fill="#ff0000" stroke="#ff0000" stroke-width="0.000" />
  <polygon points="433.364,203.052 418.884,114.526 455.720,125.089" fill="#ffffff" stroke="#ffffff" stroke-width="0.000" />
  <polygon points="433.364,203.052 455.720,125.089 481.493,216.853" fill="#ffffff" stroke="#ffffff" stroke-width="0.000" />
  <polygon points="481.493,216.853 455.720,125.089 468.655,128.798" fill="#ff0000" stroke="#ff0000" stroke-width="0.000" />
  <polygon points="481.493,216.853 468.655,128.798 498.393,221.699" fill="#ff0000" stroke="#ff0000" stroke-width="0.000" />
  <polygon points="128.798,31.345 221.699,1.607 228.700,3.614" fill="#ff0000" stroke="#ff0000" stroke-width="0.000" />
  <polygon points="128.798,31.345 228.700,3.614 141.733,35.054" fill="#ff0000" stroke="#ff0000" stroke-width="0.000" />
  <polygon points="141.733,35.054 228.700,3.614 248.635,9.331" fill="#ffffff" stroke="#ffffff" stroke-width="0.000" />
  <polygon points="141.733,35.054 248.635,9.331 178.569,45.617" fill="#ffffff" stroke="#ffffff" stroke-width="0.000" />
  <polygon points="178.569,45.617 248.635,9.331 278.471,17.886" fill="#ff0000" stroke="#ff0000" stroke-width="0.000" />
  <polygon points="178.569,45.617 278.471,17.886 233.697,61.425" fill="#ff0000" stroke="#ff0000" stroke-width="0.000" />
  <polygon points="233.697,61.425 278.471,17.886 313.664,27.977" fill="#ffffff" stroke="#ffffff" stroke-width="0.000" />
  <polygon points="233.697,61.425 313.664,27.977 298.726,80.071" fill="#ffffff" stroke="#ffffff" stroke-width="0.000" />
  <polygon points="298.726,80.071 313.664,27.977 348.857,38.069" fill="#ff0000" stroke="#ff0000" stroke-width="0.000" />
  <polygon points="298.726,80.071 348.857,38.069 363.755,98.718" fill="#ff0000" stroke="#ff0000" stroke-width="0.000" />
  <polygon points="363.755,98.718 348.857,38.069 378.693,46.624" fill="#ffffff" stroke="#ffffff" stroke-width="0.000" />
  <polygon points="363.755,98.718 378.693,46.624 418.884,114.526" fill="#ffffff" stroke="#ffffff" stroke-width="0.000" />
  <polygon points="418.884,114.526 378.693,46.624 398.628,52.341" fill="#ff0000" stroke="#ff0000" stroke-width="0.000" />
  <polygon points="418.884,114.526 398.628,52.341 455.720,125.089" fill="#ff0000" stroke="#ff0000" stroke-width="0.000" />
  <polygon points="455.720,125.089 398.628,52.341 405.629,54.348" fill="#ffffff" stroke="#ffffff" stroke-width="0.000" />
  <polygon points="455.720,125.089 405.629,54.348 468.655,128.798" fill="#ffffff" stroke="#ffffff" stroke-width="0.000" />
  <polygon points="221.699,1.607 318.909,9.685 228.700,3.614" fill="#ffffff" stroke="#ffffff" stroke-width="0.000" />
  <polygon points="228.700,3.614 318.909,9.685 248.635,9.331" fill="#ff0000" stroke="#ff0000" stroke-width="0.000" />
  <polygon points="248.635,9.331 318.909,9.685 278.471,17.886" fill="#ffffff" stroke="#ffffff" stroke-width="0.000" />
  <polygon points="278.471,17.886 318.909,9.685 313.664,27.977" fill="#ff0000" stroke="#ff0000" stroke-width="0.000" />
  <polygon points="313.664,27.977 318.909,9.685 348.857,38.069" fill="#ffffff" stroke="#ffffff" stroke-width="0.000" />
  <polygon points="348.857,38.069 318.909,9.685 318.909,9.685" fill="#ff0000" stroke="#ff0000" stroke-width="0.000" />
  <polygon points="348.857,38.069 318.909,9.685 378.693,46.624" fill="#ff0000" stroke="#ff0000" stroke-width="0.000" />
  <polygon points="378.693,46.624 318.909,9.685 398.628,52.341" fill="#ffffff" stroke="#ffffff" stroke-width="0.000" />
  <polygon points="398.628,52.341 318.909,9.685 405.629,54.348" fill="#ff0000" stroke="#ff0000" stroke-width="0.000" />
</svg>
